%TF.GenerationSoftware,KiCad,Pcbnew,(5.1.9)-1*%
%TF.CreationDate,2022-08-11T12:06:35+02:00*%
%TF.ProjectId,raspi-shield,72617370-692d-4736-9869-656c642e6b69,rev?*%
%TF.SameCoordinates,Original*%
%TF.FileFunction,Soldermask,Top*%
%TF.FilePolarity,Negative*%
%FSLAX46Y46*%
G04 Gerber Fmt 4.6, Leading zero omitted, Abs format (unit mm)*
G04 Created by KiCad (PCBNEW (5.1.9)-1) date 2022-08-11 12:06:35*
%MOMM*%
%LPD*%
G01*
G04 APERTURE LIST*
%ADD10O,1.600000X1.600000*%
%ADD11R,1.600000X1.600000*%
%ADD12O,1.700000X1.700000*%
%ADD13R,1.700000X1.700000*%
G04 APERTURE END LIST*
D10*
%TO.C,U1*%
X134112000Y-48133000D03*
X123952000Y-65913000D03*
X134112000Y-50673000D03*
X123952000Y-63373000D03*
X134112000Y-53213000D03*
X123952000Y-60833000D03*
X134112000Y-55753000D03*
X123952000Y-58293000D03*
X134112000Y-58293000D03*
X123952000Y-55753000D03*
X134112000Y-60833000D03*
X123952000Y-53213000D03*
X134112000Y-63373000D03*
X123952000Y-50673000D03*
X134112000Y-65913000D03*
D11*
X123952000Y-48133000D03*
%TD*%
D12*
%TO.C,J7*%
X87122000Y-86487000D03*
X87122000Y-83947000D03*
X89662000Y-86487000D03*
X89662000Y-83947000D03*
X92202000Y-86487000D03*
X92202000Y-83947000D03*
X94742000Y-86487000D03*
X94742000Y-83947000D03*
X97282000Y-86487000D03*
X97282000Y-83947000D03*
X99822000Y-86487000D03*
X99822000Y-83947000D03*
X102362000Y-86487000D03*
X102362000Y-83947000D03*
X104902000Y-86487000D03*
X104902000Y-83947000D03*
X107442000Y-86487000D03*
X107442000Y-83947000D03*
X109982000Y-86487000D03*
X109982000Y-83947000D03*
X112522000Y-86487000D03*
X112522000Y-83947000D03*
X115062000Y-86487000D03*
X115062000Y-83947000D03*
X117602000Y-86487000D03*
X117602000Y-83947000D03*
X120142000Y-86487000D03*
X120142000Y-83947000D03*
X122682000Y-86487000D03*
X122682000Y-83947000D03*
X125222000Y-86487000D03*
X125222000Y-83947000D03*
X127762000Y-86487000D03*
X127762000Y-83947000D03*
X130302000Y-86487000D03*
X130302000Y-83947000D03*
X132842000Y-86487000D03*
X132842000Y-83947000D03*
X135382000Y-86487000D03*
D13*
X135382000Y-83947000D03*
%TD*%
D12*
%TO.C,J6*%
X87122000Y-93091000D03*
X87122000Y-90551000D03*
X89662000Y-93091000D03*
X89662000Y-90551000D03*
X92202000Y-93091000D03*
X92202000Y-90551000D03*
X94742000Y-93091000D03*
X94742000Y-90551000D03*
X97282000Y-93091000D03*
X97282000Y-90551000D03*
X99822000Y-93091000D03*
X99822000Y-90551000D03*
X102362000Y-93091000D03*
X102362000Y-90551000D03*
X104902000Y-93091000D03*
X104902000Y-90551000D03*
X107442000Y-93091000D03*
X107442000Y-90551000D03*
X109982000Y-93091000D03*
X109982000Y-90551000D03*
X112522000Y-93091000D03*
X112522000Y-90551000D03*
X115062000Y-93091000D03*
X115062000Y-90551000D03*
X117602000Y-93091000D03*
X117602000Y-90551000D03*
X120142000Y-93091000D03*
X120142000Y-90551000D03*
X122682000Y-93091000D03*
X122682000Y-90551000D03*
X125222000Y-93091000D03*
X125222000Y-90551000D03*
X127762000Y-93091000D03*
X127762000Y-90551000D03*
X130302000Y-93091000D03*
X130302000Y-90551000D03*
X132842000Y-93091000D03*
X132842000Y-90551000D03*
X135382000Y-93091000D03*
D13*
X135382000Y-90551000D03*
%TD*%
D12*
%TO.C,J5*%
X151384000Y-72263000D03*
X148844000Y-72263000D03*
X151384000Y-69723000D03*
X148844000Y-69723000D03*
X151384000Y-67183000D03*
X148844000Y-67183000D03*
X151384000Y-64643000D03*
X148844000Y-64643000D03*
X151384000Y-62103000D03*
D13*
X148844000Y-62103000D03*
%TD*%
D12*
%TO.C,J4*%
X155829000Y-86487000D03*
X158369000Y-86487000D03*
X155829000Y-83947000D03*
X158369000Y-83947000D03*
X155829000Y-81407000D03*
X158369000Y-81407000D03*
X155829000Y-78867000D03*
D13*
X158369000Y-78867000D03*
%TD*%
D12*
%TO.C,J3*%
X117475000Y-67437000D03*
X117475000Y-64897000D03*
X117475000Y-62357000D03*
D13*
X117475000Y-59817000D03*
%TD*%
D12*
%TO.C,J2*%
X145161000Y-55880000D03*
X145161000Y-53340000D03*
X145161000Y-50800000D03*
X145161000Y-48260000D03*
D13*
X145161000Y-45720000D03*
%TD*%
D12*
%TO.C,J1*%
X109728000Y-69469000D03*
X107188000Y-69469000D03*
X109728000Y-66929000D03*
X107188000Y-66929000D03*
X109728000Y-64389000D03*
X107188000Y-64389000D03*
X109728000Y-61849000D03*
X107188000Y-61849000D03*
X109728000Y-59309000D03*
D13*
X107188000Y-59309000D03*
%TD*%
M02*
