%TF.GenerationSoftware,KiCad,Pcbnew,(5.1.9)-1*%
%TF.CreationDate,2022-08-11T12:06:35+02:00*%
%TF.ProjectId,raspi-shield,72617370-692d-4736-9869-656c642e6b69,rev?*%
%TF.SameCoordinates,Original*%
%TF.FileFunction,Other,Fab,Bot*%
%FSLAX46Y46*%
G04 Gerber Fmt 4.6, Leading zero omitted, Abs format (unit mm)*
G04 Created by KiCad (PCBNEW (5.1.9)-1) date 2022-08-11 12:06:35*
%MOMM*%
%LPD*%
G01*
G04 APERTURE LIST*
%ADD10C,0.100000*%
%ADD11C,0.150000*%
G04 APERTURE END LIST*
D10*
%TO.C,J6*%
X136652000Y-94361000D02*
X136652000Y-90281000D01*
X136652000Y-90281000D02*
X135652000Y-89281000D01*
X135652000Y-89281000D02*
X85852000Y-89281000D01*
X85852000Y-89281000D02*
X85852000Y-94361000D01*
X85852000Y-94361000D02*
X136652000Y-94361000D01*
%TD*%
%TO.C,J6*%
D11*
X84804380Y-86106714D02*
X84328190Y-85773380D01*
X84804380Y-85535285D02*
X83804380Y-85535285D01*
X83804380Y-85916238D01*
X83852000Y-86011476D01*
X83899619Y-86059095D01*
X83994857Y-86106714D01*
X84137714Y-86106714D01*
X84232952Y-86059095D01*
X84280571Y-86011476D01*
X84328190Y-85916238D01*
X84328190Y-85535285D01*
X84804380Y-86963857D02*
X84280571Y-86963857D01*
X84185333Y-86916238D01*
X84137714Y-86821000D01*
X84137714Y-86630523D01*
X84185333Y-86535285D01*
X84756761Y-86963857D02*
X84804380Y-86868619D01*
X84804380Y-86630523D01*
X84756761Y-86535285D01*
X84661523Y-86487666D01*
X84566285Y-86487666D01*
X84471047Y-86535285D01*
X84423428Y-86630523D01*
X84423428Y-86868619D01*
X84375809Y-86963857D01*
X84756761Y-87392428D02*
X84804380Y-87487666D01*
X84804380Y-87678142D01*
X84756761Y-87773380D01*
X84661523Y-87821000D01*
X84613904Y-87821000D01*
X84518666Y-87773380D01*
X84471047Y-87678142D01*
X84471047Y-87535285D01*
X84423428Y-87440047D01*
X84328190Y-87392428D01*
X84280571Y-87392428D01*
X84185333Y-87440047D01*
X84137714Y-87535285D01*
X84137714Y-87678142D01*
X84185333Y-87773380D01*
X84137714Y-88249571D02*
X85137714Y-88249571D01*
X84185333Y-88249571D02*
X84137714Y-88344809D01*
X84137714Y-88535285D01*
X84185333Y-88630523D01*
X84232952Y-88678142D01*
X84328190Y-88725761D01*
X84613904Y-88725761D01*
X84709142Y-88678142D01*
X84756761Y-88630523D01*
X84804380Y-88535285D01*
X84804380Y-88344809D01*
X84756761Y-88249571D01*
X84804380Y-89154333D02*
X83804380Y-89154333D01*
X84185333Y-89154333D02*
X84137714Y-89249571D01*
X84137714Y-89440047D01*
X84185333Y-89535285D01*
X84232952Y-89582904D01*
X84328190Y-89630523D01*
X84613904Y-89630523D01*
X84709142Y-89582904D01*
X84756761Y-89535285D01*
X84804380Y-89440047D01*
X84804380Y-89249571D01*
X84756761Y-89154333D01*
X84756761Y-90440047D02*
X84804380Y-90344809D01*
X84804380Y-90154333D01*
X84756761Y-90059095D01*
X84661523Y-90011476D01*
X84280571Y-90011476D01*
X84185333Y-90059095D01*
X84137714Y-90154333D01*
X84137714Y-90344809D01*
X84185333Y-90440047D01*
X84280571Y-90487666D01*
X84375809Y-90487666D01*
X84471047Y-90011476D01*
X84804380Y-90916238D02*
X84137714Y-90916238D01*
X84328190Y-90916238D02*
X84232952Y-90963857D01*
X84185333Y-91011476D01*
X84137714Y-91106714D01*
X84137714Y-91201952D01*
X84804380Y-91535285D02*
X84137714Y-91535285D01*
X84328190Y-91535285D02*
X84232952Y-91582904D01*
X84185333Y-91630523D01*
X84137714Y-91725761D01*
X84137714Y-91821000D01*
X84137714Y-92059095D02*
X84804380Y-92297190D01*
X84137714Y-92535285D02*
X84804380Y-92297190D01*
X85042476Y-92201952D01*
X85090095Y-92154333D01*
X85137714Y-92059095D01*
X84899619Y-92678142D02*
X84899619Y-93440047D01*
X84804380Y-93678142D02*
X83804380Y-93678142D01*
X83804380Y-94059095D01*
X83852000Y-94154333D01*
X83899619Y-94201952D01*
X83994857Y-94249571D01*
X84137714Y-94249571D01*
X84232952Y-94201952D01*
X84280571Y-94154333D01*
X84328190Y-94059095D01*
X84328190Y-93678142D01*
X84804380Y-94678142D02*
X84137714Y-94678142D01*
X83804380Y-94678142D02*
X83852000Y-94630523D01*
X83899619Y-94678142D01*
X83852000Y-94725761D01*
X83804380Y-94678142D01*
X83899619Y-94678142D01*
X84899619Y-94916238D02*
X84899619Y-95678142D01*
X83899619Y-95868619D02*
X83852000Y-95916238D01*
X83804380Y-96011476D01*
X83804380Y-96249571D01*
X83852000Y-96344809D01*
X83899619Y-96392428D01*
X83994857Y-96440047D01*
X84090095Y-96440047D01*
X84232952Y-96392428D01*
X84804380Y-95821000D01*
X84804380Y-96440047D01*
X84899619Y-96630523D02*
X84899619Y-97392428D01*
X83804380Y-97535285D02*
X83804380Y-98154333D01*
X84185333Y-97821000D01*
X84185333Y-97963857D01*
X84232952Y-98059095D01*
X84280571Y-98106714D01*
X84375809Y-98154333D01*
X84613904Y-98154333D01*
X84709142Y-98106714D01*
X84756761Y-98059095D01*
X84804380Y-97963857D01*
X84804380Y-97678142D01*
X84756761Y-97582904D01*
X84709142Y-97535285D01*
X111585333Y-91273380D02*
X111585333Y-91987666D01*
X111632952Y-92130523D01*
X111728190Y-92225761D01*
X111871047Y-92273380D01*
X111966285Y-92273380D01*
X110680571Y-91273380D02*
X110871047Y-91273380D01*
X110966285Y-91321000D01*
X111013904Y-91368619D01*
X111109142Y-91511476D01*
X111156761Y-91701952D01*
X111156761Y-92082904D01*
X111109142Y-92178142D01*
X111061523Y-92225761D01*
X110966285Y-92273380D01*
X110775809Y-92273380D01*
X110680571Y-92225761D01*
X110632952Y-92178142D01*
X110585333Y-92082904D01*
X110585333Y-91844809D01*
X110632952Y-91749571D01*
X110680571Y-91701952D01*
X110775809Y-91654333D01*
X110966285Y-91654333D01*
X111061523Y-91701952D01*
X111109142Y-91749571D01*
X111156761Y-91844809D01*
%TD*%
M02*
