%TF.GenerationSoftware,KiCad,Pcbnew,(5.1.9)-1*%
%TF.CreationDate,2022-08-11T12:06:35+02:00*%
%TF.ProjectId,raspi-shield,72617370-692d-4736-9869-656c642e6b69,rev?*%
%TF.SameCoordinates,Original*%
%TF.FileFunction,Legend,Top*%
%TF.FilePolarity,Positive*%
%FSLAX46Y46*%
G04 Gerber Fmt 4.6, Leading zero omitted, Abs format (unit mm)*
G04 Created by KiCad (PCBNEW (5.1.9)-1) date 2022-08-11 12:06:35*
%MOMM*%
%LPD*%
G01*
G04 APERTURE LIST*
%ADD10C,0.120000*%
%ADD11C,0.150000*%
G04 APERTURE END LIST*
D10*
%TO.C,U1*%
X130032000Y-46803000D02*
G75*
G02*
X128032000Y-46803000I-1000000J0D01*
G01*
X128032000Y-46803000D02*
X125797000Y-46803000D01*
X125797000Y-46803000D02*
X125797000Y-67243000D01*
X125797000Y-67243000D02*
X132267000Y-67243000D01*
X132267000Y-67243000D02*
X132267000Y-46803000D01*
X132267000Y-46803000D02*
X130032000Y-46803000D01*
%TO.C,J7*%
X85792000Y-82617000D02*
X85792000Y-87817000D01*
X134112000Y-82617000D02*
X85792000Y-82617000D01*
X136712000Y-87817000D02*
X85792000Y-87817000D01*
X134112000Y-82617000D02*
X134112000Y-85217000D01*
X134112000Y-85217000D02*
X136712000Y-85217000D01*
X136712000Y-85217000D02*
X136712000Y-87817000D01*
X135382000Y-82617000D02*
X136712000Y-82617000D01*
X136712000Y-82617000D02*
X136712000Y-83947000D01*
%TO.C,J5*%
X147514000Y-73593000D02*
X152714000Y-73593000D01*
X147514000Y-63373000D02*
X147514000Y-73593000D01*
X152714000Y-60773000D02*
X152714000Y-73593000D01*
X147514000Y-63373000D02*
X150114000Y-63373000D01*
X150114000Y-63373000D02*
X150114000Y-60773000D01*
X150114000Y-60773000D02*
X152714000Y-60773000D01*
X147514000Y-62103000D02*
X147514000Y-60773000D01*
X147514000Y-60773000D02*
X148844000Y-60773000D01*
%TO.C,J4*%
X154499000Y-77537000D02*
X157099000Y-77537000D01*
X154499000Y-77537000D02*
X154499000Y-87817000D01*
X154499000Y-87817000D02*
X159699000Y-87817000D01*
X159699000Y-80137000D02*
X159699000Y-87817000D01*
X157099000Y-80137000D02*
X159699000Y-80137000D01*
X157099000Y-77537000D02*
X157099000Y-80137000D01*
X159699000Y-77537000D02*
X159699000Y-78867000D01*
X158369000Y-77537000D02*
X159699000Y-77537000D01*
%TO.C,J3*%
X116145000Y-61087000D02*
X118805000Y-61087000D01*
X116145000Y-61087000D02*
X116145000Y-68767000D01*
X116145000Y-68767000D02*
X118805000Y-68767000D01*
X118805000Y-61087000D02*
X118805000Y-68767000D01*
X118805000Y-58487000D02*
X118805000Y-59817000D01*
X117475000Y-58487000D02*
X118805000Y-58487000D01*
%TO.C,J2*%
X143831000Y-46990000D02*
X146491000Y-46990000D01*
X143831000Y-46990000D02*
X143831000Y-57210000D01*
X143831000Y-57210000D02*
X146491000Y-57210000D01*
X146491000Y-46990000D02*
X146491000Y-57210000D01*
X146491000Y-44390000D02*
X146491000Y-45720000D01*
X145161000Y-44390000D02*
X146491000Y-44390000D01*
%TO.C,J1*%
X105858000Y-70799000D02*
X111058000Y-70799000D01*
X105858000Y-60579000D02*
X105858000Y-70799000D01*
X111058000Y-57979000D02*
X111058000Y-70799000D01*
X105858000Y-60579000D02*
X108458000Y-60579000D01*
X108458000Y-60579000D02*
X108458000Y-57979000D01*
X108458000Y-57979000D02*
X111058000Y-57979000D01*
X105858000Y-59309000D02*
X105858000Y-57979000D01*
X105858000Y-57979000D02*
X107188000Y-57979000D01*
%TO.C,U1*%
D11*
X128270095Y-45255380D02*
X128270095Y-46064904D01*
X128317714Y-46160142D01*
X128365333Y-46207761D01*
X128460571Y-46255380D01*
X128651047Y-46255380D01*
X128746285Y-46207761D01*
X128793904Y-46160142D01*
X128841523Y-46064904D01*
X128841523Y-45255380D01*
X129841523Y-46255380D02*
X129270095Y-46255380D01*
X129555809Y-46255380D02*
X129555809Y-45255380D01*
X129460571Y-45398238D01*
X129365333Y-45493476D01*
X129270095Y-45541095D01*
%TO.C,J7*%
X137164380Y-85550333D02*
X137878666Y-85550333D01*
X138021523Y-85597952D01*
X138116761Y-85693190D01*
X138164380Y-85836047D01*
X138164380Y-85931285D01*
X137164380Y-85169380D02*
X137164380Y-84502714D01*
X138164380Y-84931285D01*
%TO.C,J5*%
X149780666Y-59225380D02*
X149780666Y-59939666D01*
X149733047Y-60082523D01*
X149637809Y-60177761D01*
X149494952Y-60225380D01*
X149399714Y-60225380D01*
X150733047Y-59225380D02*
X150256857Y-59225380D01*
X150209238Y-59701571D01*
X150256857Y-59653952D01*
X150352095Y-59606333D01*
X150590190Y-59606333D01*
X150685428Y-59653952D01*
X150733047Y-59701571D01*
X150780666Y-59796809D01*
X150780666Y-60034904D01*
X150733047Y-60130142D01*
X150685428Y-60177761D01*
X150590190Y-60225380D01*
X150352095Y-60225380D01*
X150256857Y-60177761D01*
X150209238Y-60130142D01*
X149352095Y-74093000D02*
X149256857Y-74045380D01*
X149114000Y-74045380D01*
X148971142Y-74093000D01*
X148875904Y-74188238D01*
X148828285Y-74283476D01*
X148780666Y-74473952D01*
X148780666Y-74616809D01*
X148828285Y-74807285D01*
X148875904Y-74902523D01*
X148971142Y-74997761D01*
X149114000Y-75045380D01*
X149209238Y-75045380D01*
X149352095Y-74997761D01*
X149399714Y-74950142D01*
X149399714Y-74616809D01*
X149209238Y-74616809D01*
X149828285Y-75045380D02*
X149828285Y-74045380D01*
X150399714Y-75045380D01*
X150399714Y-74045380D01*
X150875904Y-75045380D02*
X150875904Y-74045380D01*
X151114000Y-74045380D01*
X151256857Y-74093000D01*
X151352095Y-74188238D01*
X151399714Y-74283476D01*
X151447333Y-74473952D01*
X151447333Y-74616809D01*
X151399714Y-74807285D01*
X151352095Y-74902523D01*
X151256857Y-74997761D01*
X151114000Y-75045380D01*
X150875904Y-75045380D01*
%TO.C,J4*%
X156765666Y-75549380D02*
X156765666Y-76263666D01*
X156718047Y-76406523D01*
X156622809Y-76501761D01*
X156479952Y-76549380D01*
X156384714Y-76549380D01*
X157670428Y-75882714D02*
X157670428Y-76549380D01*
X157432333Y-75501761D02*
X157194238Y-76216047D01*
X157813285Y-76216047D01*
%TO.C,J3*%
X117141666Y-56499380D02*
X117141666Y-57213666D01*
X117094047Y-57356523D01*
X116998809Y-57451761D01*
X116855952Y-57499380D01*
X116760714Y-57499380D01*
X117522619Y-56499380D02*
X118141666Y-56499380D01*
X117808333Y-56880333D01*
X117951190Y-56880333D01*
X118046428Y-56927952D01*
X118094047Y-56975571D01*
X118141666Y-57070809D01*
X118141666Y-57308904D01*
X118094047Y-57404142D01*
X118046428Y-57451761D01*
X117951190Y-57499380D01*
X117665476Y-57499380D01*
X117570238Y-57451761D01*
X117522619Y-57404142D01*
%TO.C,J2*%
X144827666Y-42402380D02*
X144827666Y-43116666D01*
X144780047Y-43259523D01*
X144684809Y-43354761D01*
X144541952Y-43402380D01*
X144446714Y-43402380D01*
X145256238Y-42497619D02*
X145303857Y-42450000D01*
X145399095Y-42402380D01*
X145637190Y-42402380D01*
X145732428Y-42450000D01*
X145780047Y-42497619D01*
X145827666Y-42592857D01*
X145827666Y-42688095D01*
X145780047Y-42830952D01*
X145208619Y-43402380D01*
X145827666Y-43402380D01*
%TO.C,J1*%
X108124666Y-56431380D02*
X108124666Y-57145666D01*
X108077047Y-57288523D01*
X107981809Y-57383761D01*
X107838952Y-57431380D01*
X107743714Y-57431380D01*
X109124666Y-57431380D02*
X108553238Y-57431380D01*
X108838952Y-57431380D02*
X108838952Y-56431380D01*
X108743714Y-56574238D01*
X108648476Y-56669476D01*
X108553238Y-56717095D01*
%TD*%
M02*
