%TF.GenerationSoftware,KiCad,Pcbnew,(5.1.9)-1*%
%TF.CreationDate,2022-08-11T12:06:35+02:00*%
%TF.ProjectId,raspi-shield,72617370-692d-4736-9869-656c642e6b69,rev?*%
%TF.SameCoordinates,Original*%
%TF.FileFunction,Copper,L2,Bot*%
%TF.FilePolarity,Positive*%
%FSLAX46Y46*%
G04 Gerber Fmt 4.6, Leading zero omitted, Abs format (unit mm)*
G04 Created by KiCad (PCBNEW (5.1.9)-1) date 2022-08-11 12:06:35*
%MOMM*%
%LPD*%
G01*
G04 APERTURE LIST*
%TA.AperFunction,ComponentPad*%
%ADD10O,1.600000X1.600000*%
%TD*%
%TA.AperFunction,ComponentPad*%
%ADD11R,1.600000X1.600000*%
%TD*%
%TA.AperFunction,ComponentPad*%
%ADD12O,1.700000X1.700000*%
%TD*%
%TA.AperFunction,ComponentPad*%
%ADD13R,1.700000X1.700000*%
%TD*%
G04 APERTURE END LIST*
D10*
%TO.P,U1,16*%
%TO.N,Net-(U1-Pad16)*%
X134112000Y-48133000D03*
%TO.P,U1,8*%
%TO.N,Net-(U1-Pad8)*%
X123952000Y-65913000D03*
%TO.P,U1,15*%
%TO.N,Net-(U1-Pad15)*%
X134112000Y-50673000D03*
%TO.P,U1,7*%
%TO.N,Net-(U1-Pad7)*%
X123952000Y-63373000D03*
%TO.P,U1,14*%
%TO.N,/GND*%
X134112000Y-53213000D03*
%TO.P,U1,6*%
%TO.N,Net-(U1-Pad6)*%
X123952000Y-60833000D03*
%TO.P,U1,13*%
%TO.N,Net-(U1-Pad13)*%
X134112000Y-55753000D03*
%TO.P,U1,5*%
%TO.N,Net-(U1-Pad5)*%
X123952000Y-58293000D03*
%TO.P,U1,12*%
%TO.N,Net-(U1-Pad12)*%
X134112000Y-58293000D03*
%TO.P,U1,4*%
%TO.N,Net-(U1-Pad4)*%
X123952000Y-55753000D03*
%TO.P,U1,11*%
%TO.N,Net-(U1-Pad11)*%
X134112000Y-60833000D03*
%TO.P,U1,3*%
%TO.N,Net-(U1-Pad3)*%
X123952000Y-53213000D03*
%TO.P,U1,10*%
%TO.N,Net-(U1-Pad10)*%
X134112000Y-63373000D03*
%TO.P,U1,2*%
%TO.N,/CZT*%
X123952000Y-50673000D03*
%TO.P,U1,9*%
%TO.N,/GND*%
X134112000Y-65913000D03*
D11*
%TO.P,U1,1*%
%TO.N,/CZP*%
X123952000Y-48133000D03*
%TD*%
D12*
%TO.P,J7,40*%
%TO.N,/GPIO21_SCLK1*%
X87122000Y-86487000D03*
%TO.P,J7,39*%
%TO.N,/GND*%
X87122000Y-83947000D03*
%TO.P,J7,38*%
%TO.N,/GPIO20_MOSI1*%
X89662000Y-86487000D03*
%TO.P,J7,37*%
%TO.N,/GPIO26*%
X89662000Y-83947000D03*
%TO.P,J7,36*%
%TO.N,/GPIO16*%
X92202000Y-86487000D03*
%TO.P,J7,35*%
%TO.N,/GPIO19*%
X92202000Y-83947000D03*
%TO.P,J7,34*%
%TO.N,/GND*%
X94742000Y-86487000D03*
%TO.P,J7,33*%
%TO.N,/GPIO13*%
X94742000Y-83947000D03*
%TO.P,J7,32*%
%TO.N,/GPIO12*%
X97282000Y-86487000D03*
%TO.P,J7,31*%
%TO.N,/GPIO6*%
X97282000Y-83947000D03*
%TO.P,J7,30*%
%TO.N,/GND*%
X99822000Y-86487000D03*
%TO.P,J7,29*%
%TO.N,/GPIO5*%
X99822000Y-83947000D03*
%TO.P,J7,28*%
%TO.N,/GPIO1_ID_SC*%
X102362000Y-86487000D03*
%TO.P,J7,27*%
%TO.N,/GPIO0_ID_SD*%
X102362000Y-83947000D03*
%TO.P,J7,26*%
%TO.N,/GPIO9_SPI_CE1*%
X104902000Y-86487000D03*
%TO.P,J7,25*%
%TO.N,/GND*%
X104902000Y-83947000D03*
%TO.P,J7,24*%
%TO.N,/GPIO8_SPI_CE0*%
X107442000Y-86487000D03*
%TO.P,J7,23*%
%TO.N,/GPIO11*%
X107442000Y-83947000D03*
%TO.P,J7,22*%
%TO.N,/GPIO25*%
X109982000Y-86487000D03*
%TO.P,J7,21*%
%TO.N,/GPIO9*%
X109982000Y-83947000D03*
%TO.P,J7,20*%
%TO.N,/GND*%
X112522000Y-86487000D03*
%TO.P,J7,19*%
%TO.N,/GPIO10*%
X112522000Y-83947000D03*
%TO.P,J7,18*%
%TO.N,/GPIO24*%
X115062000Y-86487000D03*
%TO.P,J7,17*%
%TO.N,/3V3*%
X115062000Y-83947000D03*
%TO.P,J7,16*%
%TO.N,/GPIO23*%
X117602000Y-86487000D03*
%TO.P,J7,15*%
%TO.N,/GPIO22*%
X117602000Y-83947000D03*
%TO.P,J7,14*%
%TO.N,/GND*%
X120142000Y-86487000D03*
%TO.P,J7,13*%
%TO.N,/GPIO27*%
X120142000Y-83947000D03*
%TO.P,J7,12*%
%TO.N,/GPIO18_PWM0*%
X122682000Y-86487000D03*
%TO.P,J7,11*%
%TO.N,/GPIO17*%
X122682000Y-83947000D03*
%TO.P,J7,10*%
%TO.N,/GPIO15_RXD*%
X125222000Y-86487000D03*
%TO.P,J7,9*%
%TO.N,/GND*%
X125222000Y-83947000D03*
%TO.P,J7,8*%
%TO.N,/GPIO14_TXD*%
X127762000Y-86487000D03*
%TO.P,J7,7*%
%TO.N,/GPIO4_GCLK0*%
X127762000Y-83947000D03*
%TO.P,J7,6*%
%TO.N,/GND*%
X130302000Y-86487000D03*
%TO.P,J7,5*%
%TO.N,/GPIO3_SCL*%
X130302000Y-83947000D03*
%TO.P,J7,4*%
%TO.N,/5V*%
X132842000Y-86487000D03*
%TO.P,J7,3*%
%TO.N,/GPIO2_SDA*%
X132842000Y-83947000D03*
%TO.P,J7,2*%
%TO.N,/5V*%
X135382000Y-86487000D03*
D13*
%TO.P,J7,1*%
%TO.N,/3V3*%
X135382000Y-83947000D03*
%TD*%
D12*
%TO.P,J6,40*%
%TO.N,/GPIO21_SCLK1*%
X87122000Y-93091000D03*
%TO.P,J6,39*%
%TO.N,/GND*%
X87122000Y-90551000D03*
%TO.P,J6,38*%
%TO.N,/GPIO20_MOSI1*%
X89662000Y-93091000D03*
%TO.P,J6,37*%
%TO.N,/GPIO26*%
X89662000Y-90551000D03*
%TO.P,J6,36*%
%TO.N,/GPIO16*%
X92202000Y-93091000D03*
%TO.P,J6,35*%
%TO.N,/GPIO19*%
X92202000Y-90551000D03*
%TO.P,J6,34*%
%TO.N,/GND*%
X94742000Y-93091000D03*
%TO.P,J6,33*%
%TO.N,/GPIO13*%
X94742000Y-90551000D03*
%TO.P,J6,32*%
%TO.N,/GPIO12*%
X97282000Y-93091000D03*
%TO.P,J6,31*%
%TO.N,/GPIO6*%
X97282000Y-90551000D03*
%TO.P,J6,30*%
%TO.N,/GND*%
X99822000Y-93091000D03*
%TO.P,J6,29*%
%TO.N,/GPIO5*%
X99822000Y-90551000D03*
%TO.P,J6,28*%
%TO.N,/GPIO1_ID_SC*%
X102362000Y-93091000D03*
%TO.P,J6,27*%
%TO.N,/GPIO0_ID_SD*%
X102362000Y-90551000D03*
%TO.P,J6,26*%
%TO.N,/GPIO9_SPI_CE1*%
X104902000Y-93091000D03*
%TO.P,J6,25*%
%TO.N,/GND*%
X104902000Y-90551000D03*
%TO.P,J6,24*%
%TO.N,/GPIO8_SPI_CE0*%
X107442000Y-93091000D03*
%TO.P,J6,23*%
%TO.N,/GPIO11*%
X107442000Y-90551000D03*
%TO.P,J6,22*%
%TO.N,/GPIO25*%
X109982000Y-93091000D03*
%TO.P,J6,21*%
%TO.N,/GPIO9*%
X109982000Y-90551000D03*
%TO.P,J6,20*%
%TO.N,/GND*%
X112522000Y-93091000D03*
%TO.P,J6,19*%
%TO.N,/GPIO10*%
X112522000Y-90551000D03*
%TO.P,J6,18*%
%TO.N,/GPIO24*%
X115062000Y-93091000D03*
%TO.P,J6,17*%
%TO.N,/3V3*%
X115062000Y-90551000D03*
%TO.P,J6,16*%
%TO.N,/GPIO23*%
X117602000Y-93091000D03*
%TO.P,J6,15*%
%TO.N,/GPIO22*%
X117602000Y-90551000D03*
%TO.P,J6,14*%
%TO.N,/GND*%
X120142000Y-93091000D03*
%TO.P,J6,13*%
%TO.N,/GPIO27*%
X120142000Y-90551000D03*
%TO.P,J6,12*%
%TO.N,/GPIO18_PWM0*%
X122682000Y-93091000D03*
%TO.P,J6,11*%
%TO.N,/GPIO17*%
X122682000Y-90551000D03*
%TO.P,J6,10*%
%TO.N,/GPIO15_RXD*%
X125222000Y-93091000D03*
%TO.P,J6,9*%
%TO.N,/GND*%
X125222000Y-90551000D03*
%TO.P,J6,8*%
%TO.N,/GPIO14_TXD*%
X127762000Y-93091000D03*
%TO.P,J6,7*%
%TO.N,/GPIO4_GCLK0*%
X127762000Y-90551000D03*
%TO.P,J6,6*%
%TO.N,/GND*%
X130302000Y-93091000D03*
%TO.P,J6,5*%
%TO.N,/GPIO3_SCL*%
X130302000Y-90551000D03*
%TO.P,J6,4*%
%TO.N,/5V*%
X132842000Y-93091000D03*
%TO.P,J6,3*%
%TO.N,/GPIO2_SDA*%
X132842000Y-90551000D03*
%TO.P,J6,2*%
%TO.N,/5V*%
X135382000Y-93091000D03*
D13*
%TO.P,J6,1*%
%TO.N,/3V3*%
X135382000Y-90551000D03*
%TD*%
D12*
%TO.P,J5,10*%
%TO.N,/GND*%
X151384000Y-72263000D03*
%TO.P,J5,9*%
X148844000Y-72263000D03*
%TO.P,J5,8*%
X151384000Y-69723000D03*
%TO.P,J5,7*%
X148844000Y-69723000D03*
%TO.P,J5,6*%
X151384000Y-67183000D03*
%TO.P,J5,5*%
X148844000Y-67183000D03*
%TO.P,J5,4*%
X151384000Y-64643000D03*
%TO.P,J5,3*%
X148844000Y-64643000D03*
%TO.P,J5,2*%
X151384000Y-62103000D03*
D13*
%TO.P,J5,1*%
X148844000Y-62103000D03*
%TD*%
D12*
%TO.P,J4,8*%
%TO.N,Net-(J4-Pad8)*%
X155829000Y-86487000D03*
%TO.P,J4,7*%
%TO.N,Net-(J4-Pad7)*%
X158369000Y-86487000D03*
%TO.P,J4,6*%
%TO.N,Net-(J4-Pad6)*%
X155829000Y-83947000D03*
%TO.P,J4,5*%
%TO.N,Net-(J4-Pad5)*%
X158369000Y-83947000D03*
%TO.P,J4,4*%
%TO.N,Net-(J4-Pad4)*%
X155829000Y-81407000D03*
%TO.P,J4,3*%
%TO.N,Net-(J4-Pad3)*%
X158369000Y-81407000D03*
%TO.P,J4,2*%
%TO.N,Net-(J4-Pad2)*%
X155829000Y-78867000D03*
D13*
%TO.P,J4,1*%
%TO.N,Net-(J4-Pad1)*%
X158369000Y-78867000D03*
%TD*%
D12*
%TO.P,J3,4*%
%TO.N,/GPIO14_TXD*%
X117475000Y-67437000D03*
%TO.P,J3,3*%
%TO.N,/GPIO15_RXD*%
X117475000Y-64897000D03*
%TO.P,J3,2*%
%TO.N,/3V3*%
X117475000Y-62357000D03*
D13*
%TO.P,J3,1*%
%TO.N,/GND*%
X117475000Y-59817000D03*
%TD*%
D12*
%TO.P,J2,5*%
%TO.N,Net-(J2-Pad5)*%
X145161000Y-55880000D03*
%TO.P,J2,4*%
%TO.N,/SDA*%
X145161000Y-53340000D03*
%TO.P,J2,3*%
%TO.N,/SCL*%
X145161000Y-50800000D03*
%TO.P,J2,2*%
%TO.N,/GND*%
X145161000Y-48260000D03*
D13*
%TO.P,J2,1*%
%TO.N,/3V3*%
X145161000Y-45720000D03*
%TD*%
D12*
%TO.P,J1,10*%
%TO.N,/5V*%
X109728000Y-69469000D03*
%TO.P,J1,9*%
X107188000Y-69469000D03*
%TO.P,J1,8*%
X109728000Y-66929000D03*
%TO.P,J1,7*%
X107188000Y-66929000D03*
%TO.P,J1,6*%
X109728000Y-64389000D03*
%TO.P,J1,5*%
X107188000Y-64389000D03*
%TO.P,J1,4*%
X109728000Y-61849000D03*
%TO.P,J1,3*%
X107188000Y-61849000D03*
%TO.P,J1,2*%
X109728000Y-59309000D03*
D13*
%TO.P,J1,1*%
X107188000Y-59309000D03*
%TD*%
M02*
