%TF.GenerationSoftware,KiCad,Pcbnew,(5.1.9)-1*%
%TF.CreationDate,2022-08-11T12:06:35+02:00*%
%TF.ProjectId,raspi-shield,72617370-692d-4736-9869-656c642e6b69,rev?*%
%TF.SameCoordinates,Original*%
%TF.FileFunction,Other,Fab,Top*%
%FSLAX46Y46*%
G04 Gerber Fmt 4.6, Leading zero omitted, Abs format (unit mm)*
G04 Created by KiCad (PCBNEW (5.1.9)-1) date 2022-08-11 12:06:35*
%MOMM*%
%LPD*%
G01*
G04 APERTURE LIST*
%ADD10C,0.100000*%
%ADD11C,0.150000*%
G04 APERTURE END LIST*
D10*
%TO.C,U1*%
X126857000Y-46863000D02*
X132207000Y-46863000D01*
X132207000Y-46863000D02*
X132207000Y-67183000D01*
X132207000Y-67183000D02*
X125857000Y-67183000D01*
X125857000Y-67183000D02*
X125857000Y-47863000D01*
X125857000Y-47863000D02*
X126857000Y-46863000D01*
%TO.C,J7*%
X136652000Y-83947000D02*
X136652000Y-87757000D01*
X136652000Y-87757000D02*
X85852000Y-87757000D01*
X85852000Y-87757000D02*
X85852000Y-82677000D01*
X85852000Y-82677000D02*
X135382000Y-82677000D01*
X135382000Y-82677000D02*
X136652000Y-83947000D01*
%TO.C,J5*%
X148844000Y-60833000D02*
X152654000Y-60833000D01*
X152654000Y-60833000D02*
X152654000Y-73533000D01*
X152654000Y-73533000D02*
X147574000Y-73533000D01*
X147574000Y-73533000D02*
X147574000Y-62103000D01*
X147574000Y-62103000D02*
X148844000Y-60833000D01*
%TO.C,J4*%
X154559000Y-77597000D02*
X158639000Y-77597000D01*
X158639000Y-77597000D02*
X159639000Y-78597000D01*
X159639000Y-78597000D02*
X159639000Y-87757000D01*
X159639000Y-87757000D02*
X154559000Y-87757000D01*
X154559000Y-87757000D02*
X154559000Y-77597000D01*
%TO.C,J3*%
X116205000Y-58547000D02*
X118110000Y-58547000D01*
X118110000Y-58547000D02*
X118745000Y-59182000D01*
X118745000Y-59182000D02*
X118745000Y-68707000D01*
X118745000Y-68707000D02*
X116205000Y-68707000D01*
X116205000Y-68707000D02*
X116205000Y-58547000D01*
%TO.C,J2*%
X143891000Y-44450000D02*
X145796000Y-44450000D01*
X145796000Y-44450000D02*
X146431000Y-45085000D01*
X146431000Y-45085000D02*
X146431000Y-57150000D01*
X146431000Y-57150000D02*
X143891000Y-57150000D01*
X143891000Y-57150000D02*
X143891000Y-44450000D01*
%TO.C,J1*%
X107188000Y-58039000D02*
X110998000Y-58039000D01*
X110998000Y-58039000D02*
X110998000Y-70739000D01*
X110998000Y-70739000D02*
X105918000Y-70739000D01*
X105918000Y-70739000D02*
X105918000Y-59309000D01*
X105918000Y-59309000D02*
X107188000Y-58039000D01*
%TD*%
%TO.C,U1*%
D11*
X125793904Y-68695380D02*
X125793904Y-67695380D01*
X126127238Y-68409666D01*
X126460571Y-67695380D01*
X126460571Y-68695380D01*
X127508190Y-68600142D02*
X127460571Y-68647761D01*
X127317714Y-68695380D01*
X127222476Y-68695380D01*
X127079619Y-68647761D01*
X126984380Y-68552523D01*
X126936761Y-68457285D01*
X126889142Y-68266809D01*
X126889142Y-68123952D01*
X126936761Y-67933476D01*
X126984380Y-67838238D01*
X127079619Y-67743000D01*
X127222476Y-67695380D01*
X127317714Y-67695380D01*
X127460571Y-67743000D01*
X127508190Y-67790619D01*
X127936761Y-68695380D02*
X127936761Y-67695380D01*
X128317714Y-67695380D01*
X128412952Y-67743000D01*
X128460571Y-67790619D01*
X128508190Y-67885857D01*
X128508190Y-68028714D01*
X128460571Y-68123952D01*
X128412952Y-68171571D01*
X128317714Y-68219190D01*
X127936761Y-68219190D01*
X128841523Y-67695380D02*
X129460571Y-67695380D01*
X129127238Y-68076333D01*
X129270095Y-68076333D01*
X129365333Y-68123952D01*
X129412952Y-68171571D01*
X129460571Y-68266809D01*
X129460571Y-68504904D01*
X129412952Y-68600142D01*
X129365333Y-68647761D01*
X129270095Y-68695380D01*
X128984380Y-68695380D01*
X128889142Y-68647761D01*
X128841523Y-68600142D01*
X130079619Y-67695380D02*
X130174857Y-67695380D01*
X130270095Y-67743000D01*
X130317714Y-67790619D01*
X130365333Y-67885857D01*
X130412952Y-68076333D01*
X130412952Y-68314428D01*
X130365333Y-68504904D01*
X130317714Y-68600142D01*
X130270095Y-68647761D01*
X130174857Y-68695380D01*
X130079619Y-68695380D01*
X129984380Y-68647761D01*
X129936761Y-68600142D01*
X129889142Y-68504904D01*
X129841523Y-68314428D01*
X129841523Y-68076333D01*
X129889142Y-67885857D01*
X129936761Y-67790619D01*
X129984380Y-67743000D01*
X130079619Y-67695380D01*
X131032000Y-67695380D02*
X131127238Y-67695380D01*
X131222476Y-67743000D01*
X131270095Y-67790619D01*
X131317714Y-67885857D01*
X131365333Y-68076333D01*
X131365333Y-68314428D01*
X131317714Y-68504904D01*
X131270095Y-68600142D01*
X131222476Y-68647761D01*
X131127238Y-68695380D01*
X131032000Y-68695380D01*
X130936761Y-68647761D01*
X130889142Y-68600142D01*
X130841523Y-68504904D01*
X130793904Y-68314428D01*
X130793904Y-68076333D01*
X130841523Y-67885857D01*
X130889142Y-67790619D01*
X130936761Y-67743000D01*
X131032000Y-67695380D01*
X131936761Y-68123952D02*
X131841523Y-68076333D01*
X131793904Y-68028714D01*
X131746285Y-67933476D01*
X131746285Y-67885857D01*
X131793904Y-67790619D01*
X131841523Y-67743000D01*
X131936761Y-67695380D01*
X132127238Y-67695380D01*
X132222476Y-67743000D01*
X132270095Y-67790619D01*
X132317714Y-67885857D01*
X132317714Y-67933476D01*
X132270095Y-68028714D01*
X132222476Y-68076333D01*
X132127238Y-68123952D01*
X131936761Y-68123952D01*
X131841523Y-68171571D01*
X131793904Y-68219190D01*
X131746285Y-68314428D01*
X131746285Y-68504904D01*
X131793904Y-68600142D01*
X131841523Y-68647761D01*
X131936761Y-68695380D01*
X132127238Y-68695380D01*
X132222476Y-68647761D01*
X132270095Y-68600142D01*
X132317714Y-68504904D01*
X132317714Y-68314428D01*
X132270095Y-68219190D01*
X132222476Y-68171571D01*
X132127238Y-68123952D01*
X128270095Y-56475380D02*
X128270095Y-57284904D01*
X128317714Y-57380142D01*
X128365333Y-57427761D01*
X128460571Y-57475380D01*
X128651047Y-57475380D01*
X128746285Y-57427761D01*
X128793904Y-57380142D01*
X128841523Y-57284904D01*
X128841523Y-56475380D01*
X129841523Y-57475380D02*
X129270095Y-57475380D01*
X129555809Y-57475380D02*
X129555809Y-56475380D01*
X129460571Y-56618238D01*
X129365333Y-56713476D01*
X129270095Y-56761095D01*
%TO.C,J7*%
X85244380Y-87812238D02*
X84244380Y-87812238D01*
X84958666Y-87478904D01*
X84244380Y-87145571D01*
X85244380Y-87145571D01*
X85244380Y-86669380D02*
X84244380Y-86669380D01*
X85244380Y-85621761D02*
X84768190Y-85955095D01*
X85244380Y-86193190D02*
X84244380Y-86193190D01*
X84244380Y-85812238D01*
X84292000Y-85717000D01*
X84339619Y-85669380D01*
X84434857Y-85621761D01*
X84577714Y-85621761D01*
X84672952Y-85669380D01*
X84720571Y-85717000D01*
X84768190Y-85812238D01*
X84768190Y-86193190D01*
X85244380Y-84621761D02*
X84768190Y-84955095D01*
X85244380Y-85193190D02*
X84244380Y-85193190D01*
X84244380Y-84812238D01*
X84292000Y-84717000D01*
X84339619Y-84669380D01*
X84434857Y-84621761D01*
X84577714Y-84621761D01*
X84672952Y-84669380D01*
X84720571Y-84717000D01*
X84768190Y-84812238D01*
X84768190Y-85193190D01*
X84244380Y-84002714D02*
X84244380Y-83812238D01*
X84292000Y-83717000D01*
X84387238Y-83621761D01*
X84577714Y-83574142D01*
X84911047Y-83574142D01*
X85101523Y-83621761D01*
X85196761Y-83717000D01*
X85244380Y-83812238D01*
X85244380Y-84002714D01*
X85196761Y-84097952D01*
X85101523Y-84193190D01*
X84911047Y-84240809D01*
X84577714Y-84240809D01*
X84387238Y-84193190D01*
X84292000Y-84097952D01*
X84244380Y-84002714D01*
X85244380Y-82574142D02*
X84768190Y-82907476D01*
X85244380Y-83145571D02*
X84244380Y-83145571D01*
X84244380Y-82764619D01*
X84292000Y-82669380D01*
X84339619Y-82621761D01*
X84434857Y-82574142D01*
X84577714Y-82574142D01*
X84672952Y-82621761D01*
X84720571Y-82669380D01*
X84768190Y-82764619D01*
X84768190Y-83145571D01*
X110918666Y-84669380D02*
X110918666Y-85383666D01*
X110871047Y-85526523D01*
X110775809Y-85621761D01*
X110632952Y-85669380D01*
X110537714Y-85669380D01*
X111299619Y-84669380D02*
X111966285Y-84669380D01*
X111537714Y-85669380D01*
%TO.C,J5*%
X149566380Y-67516333D02*
X150280666Y-67516333D01*
X150423523Y-67563952D01*
X150518761Y-67659190D01*
X150566380Y-67802047D01*
X150566380Y-67897285D01*
X149566380Y-66563952D02*
X149566380Y-67040142D01*
X150042571Y-67087761D01*
X149994952Y-67040142D01*
X149947333Y-66944904D01*
X149947333Y-66706809D01*
X149994952Y-66611571D01*
X150042571Y-66563952D01*
X150137809Y-66516333D01*
X150375904Y-66516333D01*
X150471142Y-66563952D01*
X150518761Y-66611571D01*
X150566380Y-66706809D01*
X150566380Y-66944904D01*
X150518761Y-67040142D01*
X150471142Y-67087761D01*
%TO.C,J4*%
X154908523Y-89709380D02*
X154908523Y-88709380D01*
X155241857Y-89423666D01*
X155575190Y-88709380D01*
X155575190Y-89709380D01*
X156622809Y-89614142D02*
X156575190Y-89661761D01*
X156432333Y-89709380D01*
X156337095Y-89709380D01*
X156194238Y-89661761D01*
X156099000Y-89566523D01*
X156051380Y-89471285D01*
X156003761Y-89280809D01*
X156003761Y-89137952D01*
X156051380Y-88947476D01*
X156099000Y-88852238D01*
X156194238Y-88757000D01*
X156337095Y-88709380D01*
X156432333Y-88709380D01*
X156575190Y-88757000D01*
X156622809Y-88804619D01*
X157051380Y-89709380D02*
X157051380Y-88709380D01*
X157432333Y-88709380D01*
X157527571Y-88757000D01*
X157575190Y-88804619D01*
X157622809Y-88899857D01*
X157622809Y-89042714D01*
X157575190Y-89137952D01*
X157527571Y-89185571D01*
X157432333Y-89233190D01*
X157051380Y-89233190D01*
X158194238Y-89614142D02*
X158241857Y-89661761D01*
X158194238Y-89709380D01*
X158146619Y-89661761D01*
X158194238Y-89614142D01*
X158194238Y-89709380D01*
X158003761Y-88757000D02*
X158099000Y-88709380D01*
X158337095Y-88709380D01*
X158432333Y-88757000D01*
X158479952Y-88852238D01*
X158479952Y-88947476D01*
X158432333Y-89042714D01*
X158384714Y-89090333D01*
X158289476Y-89137952D01*
X158241857Y-89185571D01*
X158194238Y-89280809D01*
X158194238Y-89328428D01*
X159051380Y-89614142D02*
X159099000Y-89661761D01*
X159051380Y-89709380D01*
X159003761Y-89661761D01*
X159051380Y-89614142D01*
X159051380Y-89709380D01*
X158860904Y-88757000D02*
X158956142Y-88709380D01*
X159194238Y-88709380D01*
X159289476Y-88757000D01*
X159337095Y-88852238D01*
X159337095Y-88947476D01*
X159289476Y-89042714D01*
X159241857Y-89090333D01*
X159146619Y-89137952D01*
X159099000Y-89185571D01*
X159051380Y-89280809D01*
X159051380Y-89328428D01*
X156551380Y-83010333D02*
X157265666Y-83010333D01*
X157408523Y-83057952D01*
X157503761Y-83153190D01*
X157551380Y-83296047D01*
X157551380Y-83391285D01*
X156884714Y-82105571D02*
X157551380Y-82105571D01*
X156503761Y-82343666D02*
X157218047Y-82581761D01*
X157218047Y-81962714D01*
%TO.C,J3*%
X116760714Y-69707000D02*
X116665476Y-69659380D01*
X116522619Y-69659380D01*
X116379761Y-69707000D01*
X116284523Y-69802238D01*
X116236904Y-69897476D01*
X116189285Y-70087952D01*
X116189285Y-70230809D01*
X116236904Y-70421285D01*
X116284523Y-70516523D01*
X116379761Y-70611761D01*
X116522619Y-70659380D01*
X116617857Y-70659380D01*
X116760714Y-70611761D01*
X116808333Y-70564142D01*
X116808333Y-70230809D01*
X116617857Y-70230809D01*
X117236904Y-70659380D02*
X117236904Y-69659380D01*
X117617857Y-69659380D01*
X117713095Y-69707000D01*
X117760714Y-69754619D01*
X117808333Y-69849857D01*
X117808333Y-69992714D01*
X117760714Y-70087952D01*
X117713095Y-70135571D01*
X117617857Y-70183190D01*
X117236904Y-70183190D01*
X118189285Y-70611761D02*
X118332142Y-70659380D01*
X118570238Y-70659380D01*
X118665476Y-70611761D01*
X118713095Y-70564142D01*
X118760714Y-70468904D01*
X118760714Y-70373666D01*
X118713095Y-70278428D01*
X118665476Y-70230809D01*
X118570238Y-70183190D01*
X118379761Y-70135571D01*
X118284523Y-70087952D01*
X118236904Y-70040333D01*
X118189285Y-69945095D01*
X118189285Y-69849857D01*
X118236904Y-69754619D01*
X118284523Y-69707000D01*
X118379761Y-69659380D01*
X118617857Y-69659380D01*
X118760714Y-69707000D01*
X116927380Y-63960333D02*
X117641666Y-63960333D01*
X117784523Y-64007952D01*
X117879761Y-64103190D01*
X117927380Y-64246047D01*
X117927380Y-64341285D01*
X116927380Y-63579380D02*
X116927380Y-62960333D01*
X117308333Y-63293666D01*
X117308333Y-63150809D01*
X117355952Y-63055571D01*
X117403571Y-63007952D01*
X117498809Y-62960333D01*
X117736904Y-62960333D01*
X117832142Y-63007952D01*
X117879761Y-63055571D01*
X117927380Y-63150809D01*
X117927380Y-63436523D01*
X117879761Y-63531761D01*
X117832142Y-63579380D01*
%TO.C,J2*%
X141280047Y-59102380D02*
X141280047Y-58102380D01*
X141613380Y-58816666D01*
X141946714Y-58102380D01*
X141946714Y-59102380D01*
X142422904Y-59102380D02*
X142422904Y-58102380D01*
X142803857Y-58102380D01*
X142899095Y-58150000D01*
X142946714Y-58197619D01*
X142994333Y-58292857D01*
X142994333Y-58435714D01*
X142946714Y-58530952D01*
X142899095Y-58578571D01*
X142803857Y-58626190D01*
X142422904Y-58626190D01*
X143422904Y-58102380D02*
X143422904Y-58911904D01*
X143470523Y-59007142D01*
X143518142Y-59054761D01*
X143613380Y-59102380D01*
X143803857Y-59102380D01*
X143899095Y-59054761D01*
X143946714Y-59007142D01*
X143994333Y-58911904D01*
X143994333Y-58102380D01*
X144470523Y-58721428D02*
X145232428Y-58721428D01*
X146137190Y-58102380D02*
X145946714Y-58102380D01*
X145851476Y-58150000D01*
X145803857Y-58197619D01*
X145708619Y-58340476D01*
X145661000Y-58530952D01*
X145661000Y-58911904D01*
X145708619Y-59007142D01*
X145756238Y-59054761D01*
X145851476Y-59102380D01*
X146041952Y-59102380D01*
X146137190Y-59054761D01*
X146184809Y-59007142D01*
X146232428Y-58911904D01*
X146232428Y-58673809D01*
X146184809Y-58578571D01*
X146137190Y-58530952D01*
X146041952Y-58483333D01*
X145851476Y-58483333D01*
X145756238Y-58530952D01*
X145708619Y-58578571D01*
X145661000Y-58673809D01*
X146851476Y-58102380D02*
X146946714Y-58102380D01*
X147041952Y-58150000D01*
X147089571Y-58197619D01*
X147137190Y-58292857D01*
X147184809Y-58483333D01*
X147184809Y-58721428D01*
X147137190Y-58911904D01*
X147089571Y-59007142D01*
X147041952Y-59054761D01*
X146946714Y-59102380D01*
X146851476Y-59102380D01*
X146756238Y-59054761D01*
X146708619Y-59007142D01*
X146661000Y-58911904D01*
X146613380Y-58721428D01*
X146613380Y-58483333D01*
X146661000Y-58292857D01*
X146708619Y-58197619D01*
X146756238Y-58150000D01*
X146851476Y-58102380D01*
X148089571Y-58102380D02*
X147613380Y-58102380D01*
X147565761Y-58578571D01*
X147613380Y-58530952D01*
X147708619Y-58483333D01*
X147946714Y-58483333D01*
X148041952Y-58530952D01*
X148089571Y-58578571D01*
X148137190Y-58673809D01*
X148137190Y-58911904D01*
X148089571Y-59007142D01*
X148041952Y-59054761D01*
X147946714Y-59102380D01*
X147708619Y-59102380D01*
X147613380Y-59054761D01*
X147565761Y-59007142D01*
X148756238Y-58102380D02*
X148851476Y-58102380D01*
X148946714Y-58150000D01*
X148994333Y-58197619D01*
X149041952Y-58292857D01*
X149089571Y-58483333D01*
X149089571Y-58721428D01*
X149041952Y-58911904D01*
X148994333Y-59007142D01*
X148946714Y-59054761D01*
X148851476Y-59102380D01*
X148756238Y-59102380D01*
X148661000Y-59054761D01*
X148613380Y-59007142D01*
X148565761Y-58911904D01*
X148518142Y-58721428D01*
X148518142Y-58483333D01*
X148565761Y-58292857D01*
X148613380Y-58197619D01*
X148661000Y-58150000D01*
X148756238Y-58102380D01*
X144613380Y-51133333D02*
X145327666Y-51133333D01*
X145470523Y-51180952D01*
X145565761Y-51276190D01*
X145613380Y-51419047D01*
X145613380Y-51514285D01*
X144708619Y-50704761D02*
X144661000Y-50657142D01*
X144613380Y-50561904D01*
X144613380Y-50323809D01*
X144661000Y-50228571D01*
X144708619Y-50180952D01*
X144803857Y-50133333D01*
X144899095Y-50133333D01*
X145041952Y-50180952D01*
X145613380Y-50752380D01*
X145613380Y-50133333D01*
%TO.C,J1*%
X108267523Y-71251380D02*
X107791333Y-71251380D01*
X107743714Y-71727571D01*
X107791333Y-71679952D01*
X107886571Y-71632333D01*
X108124666Y-71632333D01*
X108219904Y-71679952D01*
X108267523Y-71727571D01*
X108315142Y-71822809D01*
X108315142Y-72060904D01*
X108267523Y-72156142D01*
X108219904Y-72203761D01*
X108124666Y-72251380D01*
X107886571Y-72251380D01*
X107791333Y-72203761D01*
X107743714Y-72156142D01*
X108600857Y-71251380D02*
X108934190Y-72251380D01*
X109267523Y-71251380D01*
X107910380Y-64722333D02*
X108624666Y-64722333D01*
X108767523Y-64769952D01*
X108862761Y-64865190D01*
X108910380Y-65008047D01*
X108910380Y-65103285D01*
X108910380Y-63722333D02*
X108910380Y-64293761D01*
X108910380Y-64008047D02*
X107910380Y-64008047D01*
X108053238Y-64103285D01*
X108148476Y-64198523D01*
X108196095Y-64293761D01*
%TD*%
M02*
